<svg id="svg" xmlns="http://www.w3.org/2000/svg" xmlns:xlink="http://www.w3.org/1999/xlink" width="400" height="400" viewBox="0, 0, 400,400" version="1.1"><g id="svgg"><path id="path0" d="M253.200 205.374 C 236.033 217.063,218.611 222.413,197.772 222.395 C 184.429 222.383,175.024 220.414,161.672 214.839 C 159.732 214.029,158.075 213.478,157.991 213.615 C 157.791 213.939,162.264 218.372,165.107 220.667 C 168.471 223.383,168.499 223.035,164.719 225.489 C 147.388 236.745,146.698 263.028,163.733 263.061 C 171.166 263.075,174.374 258.524,173.607 249.054 C 173.096 242.743,173.891 238.758,176.825 232.933 C 179.266 228.085,179.540 227.950,184.725 229.040 C 201.688 232.608,221.218 230.214,235.733 222.786 C 244.103 218.503,254.024 209.279,255.580 204.333 C 255.826 203.553,255.963 203.493,253.200 205.374 M126.525 207.538 C 122.514 211.549,125.934 217.636,132.916 218.911 C 136.674 219.597,143.749 218.991,143.545 218.000 C 143.515 217.853,142.341 217.133,140.937 216.400 C 137.496 214.603,136.139 213.366,134.607 210.630 C 132.089 206.132,129.082 204.981,126.525 207.538 M172.367 225.088 C 173.244 225.778,173.244 225.778,170.691 227.567 C 167.761 229.620,166.674 231.368,164.566 237.414 C 163.963 239.145,163.299 240.885,163.091 241.280 L 162.713 242.000 162.519 241.235 C 160.743 234.198,168.266 221.862,172.367 225.088 M138.373 226.737 C 136.241 228.157,136.139 230.601,138.128 232.590 C 139.703 234.165,141.231 234.072,142.905 232.298 C 144.555 230.549,146.726 227.511,146.540 227.211 C 145.859 226.109,139.839 225.760,138.373 226.737 " stroke="none" fill="#ffffff" fill-rule="evenodd"></path><path id="path1" d="M135.067 171.322 C 134.920 171.366,134.260 171.560,133.600 171.754 C 127.382 173.579,125.253 181.930,129.954 186.057 C 131.068 187.035,134.395 188.449,136.738 188.939 C 139.932 189.607,140.919 190.308,141.015 191.977 C 141.237 195.823,136.926 196.380,133.149 192.993 C 132.241 192.179,131.248 191.433,130.942 191.336 C 130.283 191.127,128.000 192.146,128.000 192.649 C 128.000 192.833,127.760 193.201,127.467 193.467 C 125.682 195.082,129.142 199.421,133.204 200.660 C 141.622 203.228,149.501 197.348,147.729 189.821 C 146.802 185.883,144.968 184.522,138.785 183.184 C 134.718 182.304,134.029 181.779,134.185 179.683 C 134.341 177.590,137.695 176.584,139.665 178.041 C 142.585 180.199,143.999 179.934,145.732 176.901 C 147.378 174.020,139.614 169.959,135.067 171.322 M208.400 179.671 C 200.828 180.347,195.917 189.272,199.771 195.350 C 200.190 196.011,200.533 196.642,200.533 196.753 C 200.533 197.269,203.228 199.514,204.598 200.139 C 212.462 203.726,220.759 198.090,220.189 189.548 C 219.799 183.690,214.366 179.139,208.400 179.671 M223.304 180.425 C 220.908 182.022,220.848 183.825,223.101 186.421 C 223.302 186.653,223.467 186.925,223.467 187.026 C 223.467 187.127,224.067 188.177,224.800 189.359 C 225.533 190.542,226.133 191.544,226.133 191.586 C 226.133 191.628,226.973 193.058,228.000 194.763 C 230.251 198.500,230.236 198.051,228.261 202.502 C 225.841 207.958,225.822 208.598,228.051 209.709 C 230.781 211.069,231.690 210.687,233.086 207.588 C 233.546 206.568,234.222 205.073,234.589 204.267 C 234.955 203.460,235.913 201.300,236.718 199.467 C 237.523 197.633,239.070 194.191,240.157 191.816 C 241.244 189.441,242.133 187.433,242.133 187.354 C 242.133 187.274,242.484 186.484,242.914 185.598 C 244.341 182.651,244.260 181.841,242.423 180.681 C 239.156 178.619,238.497 179.245,234.673 188.055 C 233.750 190.179,233.321 190.628,232.805 190.006 C 232.446 189.573,228.569 183.135,227.998 182.024 C 226.797 179.685,225.220 179.147,223.304 180.425 M158.492 180.272 C 153.530 181.279,149.540 187.484,150.694 192.400 C 152.171 198.694,159.300 202.961,163.274 199.930 C 164.349 199.110,165.008 199.003,165.241 199.610 C 165.645 200.664,169.386 201.272,170.492 200.463 C 171.836 199.480,172.042 182.056,170.726 180.740 C 169.611 179.626,166.630 179.874,165.434 181.180 L 164.502 182.197 163.918 181.663 C 162.540 180.404,160.464 179.872,158.492 180.272 M182.000 180.362 C 175.940 182.343,173.000 189.336,175.905 194.860 C 178.404 199.613,184.651 201.856,187.701 199.096 C 188.889 198.020,189.255 200.807,188.141 202.447 C 186.753 204.489,184.202 204.651,181.127 202.892 L 179.707 202.079 178.720 202.765 C 175.226 205.192,176.368 207.952,181.545 209.592 C 186.921 211.295,192.799 208.601,194.755 203.539 C 195.208 202.367,195.469 182.343,195.045 181.240 C 194.416 179.601,190.029 179.566,189.287 181.195 C 188.900 182.045,188.736 182.037,187.197 181.090 C 185.670 180.151,183.553 179.854,182.000 180.362 M248.585 180.263 C 247.572 180.503,247.018 181.123,246.790 182.271 C 246.472 183.877,246.778 199.294,247.141 199.930 C 247.984 201.406,252.138 201.271,252.928 199.743 C 253.582 198.480,253.527 181.898,252.867 181.083 C 252.151 180.200,250.328 179.851,248.585 180.263 M258.737 180.283 C 257.131 180.774,257.067 181.163,257.067 190.395 C 257.067 200.248,257.081 200.321,259.179 200.771 C 263.024 201.595,263.733 200.567,263.733 194.174 C 263.733 187.903,264.605 186.365,267.944 186.741 C 270.773 187.060,271.219 188.045,271.329 194.214 C 271.420 199.373,271.529 200.122,272.226 200.415 C 274.231 201.258,277.195 200.933,277.616 199.824 C 278.206 198.273,277.905 187.991,277.222 186.330 C 274.957 180.822,269.297 178.414,265.453 181.322 C 264.241 182.239,263.467 182.363,263.467 181.641 C 263.467 180.454,260.740 179.670,258.737 180.283 M211.894 186.950 C 214.304 188.440,213.994 192.845,211.390 194.106 C 207.499 195.989,203.721 192.158,205.698 188.334 C 206.752 186.297,209.753 185.627,211.894 186.950 M187.173 187.222 C 189.351 188.833,188.779 192.771,186.245 193.607 C 182.435 194.865,179.597 190.625,182.213 187.583 C 183.305 186.314,185.708 186.139,187.173 187.222 M162.885 187.208 C 166.004 189.110,164.699 194.133,161.085 194.133 C 156.923 194.133,155.538 188.976,159.205 187.134 C 160.432 186.517,161.797 186.545,162.885 187.208 " stroke="none" fill="#ffffff" fill-rule="evenodd"></path><path id="path2" d="M250.800 161.564 C 250.213 161.830,249.569 162.248,249.367 162.491 C 249.140 162.766,248.605 162.933,247.954 162.933 C 245.730 162.933,244.664 164.154,243.333 168.225 C 242.933 169.449,242.275 170.829,241.871 171.292 C 236.314 177.650,243.270 182.161,249.448 176.206 L 250.774 174.928 251.854 175.969 C 257.427 181.346,264.458 176.436,259.530 170.609 C 258.532 169.428,258.020 168.451,257.226 166.212 C 255.478 161.287,253.907 160.150,250.800 161.564 M257.600 168.630 C 257.600 168.774,257.799 169.112,258.043 169.381 C 258.286 169.650,258.396 169.959,258.287 170.068 C 257.956 170.398,256.799 168.821,256.808 168.052 C 256.817 167.362,256.833 167.354,257.208 167.851 C 257.424 168.136,257.600 168.486,257.600 168.630 M250.053 169.572 C 249.518 174.087,245.460 178.322,243.618 176.287 C 242.901 175.494,243.184 174.955,245.164 173.344 C 246.248 172.462,247.253 171.370,247.631 170.661 C 249.129 167.854,250.320 167.319,250.053 169.572 M244.000 169.745 C 244.000 170.119,243.693 170.732,243.317 171.107 C 242.570 171.854,242.052 171.759,242.739 171.001 C 242.972 170.743,243.288 170.203,243.442 169.800 C 243.790 168.884,244.000 168.863,244.000 169.745 M255.836 172.246 C 257.081 173.102,257.464 173.749,257.175 174.503 C 256.692 175.762,254.743 175.536,252.927 174.011 L 251.896 173.145 252.259 171.573 C 252.747 169.457,252.705 169.487,253.734 170.516 C 254.233 171.015,255.179 171.794,255.836 172.246 M253.067 216.400 C 253.564 216.913,254.031 217.333,254.105 217.333 C 254.178 217.333,253.831 216.913,253.333 216.400 C 252.836 215.887,252.369 215.467,252.295 215.467 C 252.222 215.467,252.569 215.887,253.067 216.400 M252.133 217.067 C 252.706 217.653,253.235 218.133,253.308 218.133 C 253.382 218.133,252.973 217.653,252.400 217.067 C 251.827 216.480,251.298 216.000,251.225 216.000 C 251.152 216.000,251.560 216.480,252.133 217.067 M251.733 218.000 C 252.231 218.513,252.698 218.933,252.771 218.933 C 252.845 218.933,252.498 218.513,252.000 218.000 C 251.502 217.487,251.035 217.067,250.962 217.067 C 250.889 217.067,251.236 217.487,251.733 218.000 M205.911 236.762 C 205.873 237.749,205.797 237.897,205.400 237.746 C 205.026 237.604,204.999 237.635,205.267 237.904 C 205.794 238.435,206.184 237.813,206.063 236.635 L 205.956 235.600 205.911 236.762 M202.462 236.800 C 202.462 237.313,202.517 237.523,202.584 237.267 C 202.651 237.010,202.651 236.590,202.584 236.333 C 202.517 236.077,202.462 236.287,202.462 236.800 " stroke="none" fill="#ffffff" fill-rule="evenodd"></path><path id="path3" d="M250.933 213.834 C 250.933 213.963,251.115 214.219,251.337 214.403 C 251.559 214.587,251.709 214.932,251.670 215.169 C 251.627 215.432,251.762 215.574,252.015 215.534 C 252.243 215.497,252.836 215.887,253.334 216.400 C 254.386 217.486,254.751 217.551,255.312 216.749 C 255.797 216.057,255.652 215.780,255.062 216.270 C 254.491 216.744,252.635 215.053,253.105 214.487 C 253.406 214.124,253.266 214.039,252.490 214.115 C 252.247 214.139,251.970 214.033,251.875 213.879 C 251.666 213.541,250.933 213.506,250.933 213.834 M249.478 215.182 C 249.281 215.501,249.782 215.817,250.138 215.597 C 250.436 215.413,250.240 214.933,249.867 214.933 C 249.737 214.933,249.562 215.045,249.478 215.182 M250.400 216.210 C 250.400 216.471,252.880 218.933,253.142 218.933 C 253.625 218.933,253.237 218.189,252.211 217.143 C 251.181 216.093,250.400 215.691,250.400 216.210 M248.460 218.029 C 248.370 218.118,248.529 218.778,248.811 219.496 C 249.416 221.030,249.396 221.042,247.950 219.994 C 246.536 218.970,246.187 219.255,246.768 220.960 C 247.005 221.657,247.200 222.268,247.200 222.316 C 247.200 222.364,246.702 222.043,246.093 221.602 C 244.888 220.728,244.531 220.621,244.537 221.133 C 244.542 221.625,247.540 223.500,247.841 223.199 C 247.995 223.045,247.963 222.529,247.760 221.849 C 247.340 220.448,247.415 220.397,248.621 221.255 C 250.074 222.289,250.345 221.840,249.608 219.624 C 249.054 217.958,248.835 217.654,248.460 218.029 M242.631 222.270 C 240.948 223.184,241.760 225.867,243.719 225.867 C 245.365 225.867,246.150 223.725,244.945 222.521 C 244.204 221.780,243.644 221.719,242.631 222.270 M244.380 223.178 C 245.110 223.984,244.838 224.933,243.877 224.933 C 242.856 224.933,242.080 223.773,242.646 223.092 C 243.120 222.521,243.817 222.555,244.380 223.178 M239.017 224.621 C 238.748 224.963,238.379 225.193,238.197 225.132 C 237.656 224.952,237.822 225.646,238.675 227.133 C 239.897 229.265,240.575 228.853,239.438 226.671 C 238.393 224.667,239.800 224.042,240.947 226.000 C 241.334 226.660,241.752 227.200,241.876 227.200 C 242.444 227.200,242.348 226.590,241.584 225.348 C 240.639 223.813,239.832 223.585,239.017 224.621 M233.884 225.800 C 233.912 226.534,235.836 230.215,236.133 230.102 C 236.280 230.046,236.365 229.610,236.322 229.133 C 236.235 228.173,236.594 228.027,237.451 228.675 C 237.736 228.890,238.126 229.067,238.318 229.067 C 238.951 229.067,238.682 228.548,237.732 227.936 C 236.936 227.423,236.820 227.224,236.953 226.600 C 237.071 226.044,237.007 225.867,236.688 225.867 C 236.456 225.867,236.267 225.979,236.267 226.116 C 236.267 226.253,236.136 226.703,235.977 227.116 L 235.687 227.867 235.038 226.600 C 234.381 225.316,233.852 224.949,233.884 225.800 M231.200 228.438 C 231.200 228.554,231.396 229.162,231.635 229.788 C 232.463 231.955,230.973 232.542,230.083 230.400 C 229.778 229.667,229.432 229.067,229.314 229.067 C 228.795 229.067,228.835 229.665,229.447 231.049 C 230.173 232.690,230.786 232.947,231.727 232.006 C 232.017 231.716,232.437 231.549,232.661 231.635 C 233.202 231.842,233.177 231.358,232.561 229.733 C 232.138 228.617,231.200 227.725,231.200 228.438 M226.400 230.056 C 225.022 230.563,224.671 231.958,225.619 233.164 C 226.726 234.571,228.800 233.815,228.800 232.004 C 228.800 230.556,227.628 229.604,226.400 230.056 M227.724 231.182 C 228.122 231.926,228.064 232.682,227.578 233.085 C 227.037 233.534,226.362 233.145,226.021 232.188 C 225.573 230.932,227.105 230.026,227.724 231.182 M223.733 232.222 C 223.733 233.961,223.537 234.047,222.593 232.724 C 222.152 232.106,221.746 231.548,221.691 231.484 C 221.636 231.421,221.461 231.499,221.301 231.659 C 221.092 231.868,221.317 232.354,222.105 233.399 C 223.325 235.015,223.492 235.871,222.640 236.142 C 222.241 236.269,222.162 236.402,222.366 236.606 C 222.884 237.124,223.915 236.413,224.085 235.421 C 224.569 232.604,224.598 230.933,224.164 230.933 C 223.827 230.933,223.733 231.213,223.733 232.222 M212.000 232.549 C 212.000 233.613,212.586 236.936,212.816 237.178 C 213.061 237.435,213.165 237.226,213.459 235.895 L 213.629 235.124 214.544 236.010 C 215.395 236.835,216.169 236.944,215.591 236.158 C 214.385 234.519,214.361 234.456,214.707 233.901 C 215.306 232.942,214.652 232.904,213.878 233.853 L 213.131 234.768 212.940 233.384 C 212.751 232.011,212.000 231.343,212.000 232.549 M208.408 232.521 C 208.077 233.056,208.849 237.600,209.272 237.600 C 209.608 237.600,209.645 237.305,209.496 235.800 C 209.172 232.513,208.906 231.714,208.408 232.521 M210.194 232.583 C 210.359 233.078,210.933 233.160,210.933 232.689 C 210.933 232.457,210.743 232.267,210.511 232.267 C 210.279 232.267,210.136 232.409,210.194 232.583 M216.237 233.097 C 215.630 233.703,215.656 235.131,216.286 235.890 C 216.917 236.650,219.467 236.196,219.467 235.324 C 219.467 234.815,219.088 234.826,218.655 235.347 C 218.227 235.863,216.966 235.746,216.858 235.180 C 216.800 234.870,217.114 234.695,218.056 234.513 C 219.121 234.308,219.319 234.178,219.248 233.733 C 219.052 232.501,217.219 232.114,216.237 233.097 M184.933 233.067 C 184.650 233.524,185.069 233.930,185.476 233.592 C 185.990 233.166,187.045 233.380,187.150 233.933 C 187.224 234.320,187.040 234.400,186.073 234.400 C 184.831 234.400,184.267 234.747,184.267 235.511 C 184.267 236.161,185.207 236.603,186.149 236.397 C 186.639 236.289,186.933 236.332,186.933 236.512 C 186.933 236.670,187.102 236.800,187.307 236.800 C 187.951 236.800,188.191 233.600,187.581 233.153 C 187.016 232.740,185.173 232.680,184.933 233.067 M200.800 233.222 C 200.800 233.454,200.942 233.597,201.117 233.539 C 201.611 233.374,201.693 232.800,201.222 232.800 C 200.990 232.800,200.800 232.990,200.800 233.222 M218.308 233.478 C 218.505 233.992,218.462 234.029,217.400 234.257 C 216.751 234.396,216.533 234.350,216.533 234.075 C 216.533 233.172,218.001 232.678,218.308 233.478 M188.949 233.850 C 187.802 235.117,188.532 237.187,190.064 237.009 C 190.839 236.918,190.946 236.976,190.878 237.452 C 190.780 238.139,189.568 238.338,189.078 237.747 C 188.645 237.226,188.267 237.215,188.267 237.724 C 188.267 238.607,190.819 239.047,191.460 238.275 C 191.828 237.832,192.439 233.950,192.181 233.692 C 192.089 233.600,191.846 233.663,191.642 233.832 C 191.356 234.069,191.194 234.047,190.936 233.737 C 190.472 233.178,189.507 233.232,188.949 233.850 M178.252 233.890 C 177.978 234.335,178.596 234.844,178.963 234.477 C 179.271 234.169,179.079 233.600,178.667 233.600 C 178.537 233.600,178.351 233.730,178.252 233.890 M210.486 235.345 C 210.661 237.225,211.042 238.056,211.354 237.241 C 211.624 236.538,211.117 233.793,210.691 233.652 C 210.383 233.550,210.346 233.850,210.486 235.345 M193.391 234.311 C 192.441 235.099,192.338 236.363,193.158 237.182 C 194.462 238.486,196.373 237.722,196.373 235.897 C 196.373 234.247,194.603 233.306,193.391 234.311 M191.153 235.016 C 191.259 235.941,190.762 236.585,190.026 236.480 C 189.410 236.391,189.201 235.764,189.452 234.762 C 189.703 233.764,191.032 233.963,191.153 235.016 M196.800 234.459 C 196.800 234.663,197.052 235.576,197.360 236.489 C 197.939 238.204,197.802 238.933,196.901 238.933 C 196.699 238.933,196.533 239.053,196.533 239.200 C 196.533 239.633,197.770 239.504,198.167 239.030 C 198.675 238.424,200.250 234.589,200.095 234.338 C 199.860 233.958,199.504 234.129,199.320 234.710 C 199.219 235.027,198.956 235.717,198.735 236.243 L 198.334 237.200 197.897 235.755 C 197.494 234.419,196.800 233.600,196.800 234.459 M200.800 236.133 C 200.800 237.650,200.886 238.149,201.133 238.067 C 201.357 237.992,201.467 237.354,201.467 236.133 C 201.467 234.913,201.357 234.274,201.133 234.200 C 200.886 234.118,200.800 234.616,200.800 236.133 M202.540 234.388 C 202.454 234.529,202.464 235.433,202.563 236.398 C 202.777 238.487,203.295 238.610,203.413 236.601 C 203.556 234.173,204.962 234.063,205.120 236.467 C 205.244 238.367,205.867 238.263,205.867 236.342 C 205.867 234.313,204.862 233.421,203.753 234.467 C 203.471 234.733,203.376 234.733,203.278 234.467 C 203.133 234.071,202.761 234.031,202.540 234.388 M180.267 234.800 C 180.267 235.020,180.447 235.200,180.667 235.200 C 180.887 235.200,181.067 235.020,181.067 234.800 C 181.067 234.580,180.887 234.400,180.667 234.400 C 180.447 234.400,180.267 234.580,180.267 234.800 M195.467 235.867 C 195.467 236.971,194.747 237.513,194.004 236.969 C 192.930 236.184,193.824 234.073,194.970 234.686 C 195.306 234.866,195.467 235.248,195.467 235.867 M182.400 235.333 C 182.400 235.553,182.580 235.733,182.800 235.733 C 183.020 235.733,183.200 235.553,183.200 235.333 C 183.200 235.113,183.020 234.933,182.800 234.933 C 182.580 234.933,182.400 235.113,182.400 235.333 M186.883 235.400 C 186.783 235.926,185.679 236.186,185.272 235.779 C 184.848 235.355,185.295 234.933,186.169 234.933 C 186.790 234.933,186.952 235.039,186.883 235.400 " stroke="none" fill="#ffffff" fill-rule="evenodd"></path><path id="path4" d="M251.108 160.922 C 250.544 161.123,249.816 161.538,249.491 161.844 C 249.165 162.150,248.607 162.401,248.249 162.401 C 245.502 162.408,244.368 163.639,242.756 168.368 C 242.362 169.524,241.763 170.746,241.425 171.084 C 239.106 173.403,238.503 176.258,240.000 177.825 C 241.007 178.879,241.001 178.933,239.871 178.933 C 238.118 178.933,237.493 179.908,233.576 188.758 L 233.238 189.522 231.868 187.228 C 228.494 181.576,228.000 180.720,228.000 180.523 C 228.000 179.984,226.305 178.933,225.436 178.933 C 223.289 178.933,220.533 181.186,220.533 182.942 C 220.533 183.524,220.653 184.000,220.800 184.000 C 220.947 184.000,221.067 184.108,221.067 184.239 C 221.067 184.371,221.547 185.269,222.133 186.235 C 222.720 187.200,223.200 188.113,223.200 188.262 C 223.200 188.411,223.320 188.533,223.467 188.533 C 223.613 188.533,223.733 188.665,223.733 188.826 C 223.733 188.986,223.958 189.436,224.234 189.826 C 224.509 190.215,225.771 192.305,227.038 194.471 L 229.342 198.409 228.765 199.671 C 224.807 208.330,224.777 208.509,227.006 209.917 C 230.012 211.816,231.971 211.713,232.987 209.600 C 233.689 208.140,235.467 204.208,235.467 204.115 C 235.467 203.991,236.573 201.519,237.726 199.067 C 238.936 196.495,239.733 194.697,239.733 194.543 C 239.733 194.472,240.107 193.600,240.564 192.607 C 241.406 190.776,242.116 189.217,243.210 186.800 C 245.273 182.243,244.947 180.722,241.630 179.433 C 241.279 179.296,241.059 179.119,241.140 179.038 C 241.221 178.956,241.530 179.020,241.826 179.178 C 243.525 180.088,247.445 178.860,249.637 176.733 L 250.694 175.707 251.947 176.727 C 253.142 177.700,253.575 177.948,255.279 178.633 C 258.161 179.792,261.600 177.472,261.600 174.369 C 261.600 172.526,261.449 172.181,259.690 170.004 C 258.980 169.126,258.400 168.272,258.400 168.106 C 258.400 167.661,257.417 165.171,256.495 163.280 C 255.309 160.847,253.518 160.063,251.108 160.922 M254.392 161.463 C 255.515 162.043,256.086 163.000,257.226 166.212 C 258.020 168.451,258.532 169.428,259.530 170.609 C 264.458 176.436,257.427 181.346,251.854 175.969 L 250.774 174.928 249.448 176.206 C 243.270 182.161,236.314 177.650,241.871 171.292 C 242.275 170.829,242.933 169.449,243.333 168.225 C 244.664 164.154,245.730 162.933,247.954 162.933 C 248.605 162.933,249.140 162.766,249.367 162.491 C 250.374 161.275,252.993 160.739,254.392 161.463 M256.808 168.052 C 256.799 168.821,257.956 170.398,258.287 170.068 C 258.396 169.959,258.286 169.650,258.043 169.381 C 257.799 169.112,257.600 168.774,257.600 168.630 C 257.600 168.486,257.424 168.136,257.208 167.851 C 256.833 167.354,256.817 167.362,256.808 168.052 M248.928 168.713 C 248.565 169.128,247.981 170.004,247.631 170.661 C 247.253 171.370,246.248 172.462,245.164 173.344 C 243.184 174.955,242.901 175.494,243.618 176.287 C 244.487 177.247,246.501 176.534,247.980 174.741 C 250.075 172.201,250.995 166.351,248.928 168.713 M243.442 169.800 C 243.288 170.203,242.972 170.743,242.739 171.001 C 242.052 171.759,242.570 171.854,243.317 171.107 C 243.693 170.732,244.000 170.119,244.000 169.745 C 244.000 168.863,243.790 168.884,243.442 169.800 M249.333 170.270 C 249.333 172.066,247.469 175.027,245.820 175.850 C 243.516 176.999,242.981 175.395,245.165 173.889 C 246.737 172.806,247.549 171.930,248.261 170.545 C 249.008 169.091,249.333 169.008,249.333 170.270 M252.724 169.804 C 252.668 169.912,252.458 170.708,252.259 171.573 L 251.896 173.145 252.927 174.011 C 254.743 175.536,256.692 175.762,257.175 174.503 C 257.464 173.749,257.081 173.102,255.836 172.246 C 255.179 171.794,254.233 171.015,253.734 170.516 C 253.235 170.017,252.780 169.697,252.724 169.804 M134.395 170.778 C 124.813 172.882,123.862 185.371,133.042 188.538 C 134.009 188.871,134.914 189.246,135.053 189.372 C 135.193 189.497,135.604 189.600,135.968 189.600 C 136.652 189.600,138.041 189.988,139.200 190.504 C 141.704 191.617,140.617 194.400,137.678 194.400 C 136.320 194.400,134.171 193.397,133.823 192.600 C 132.403 189.344,126.133 191.075,126.133 194.723 C 126.133 198.313,131.834 201.934,137.467 201.921 C 140.441 201.914,140.635 201.870,143.638 200.512 C 144.797 199.988,146.933 198.114,146.933 197.621 C 146.933 197.463,147.039 197.333,147.169 197.333 C 147.298 197.333,147.493 197.063,147.601 196.733 C 149.854 189.843,148.078 185.076,142.667 183.490 C 142.007 183.296,141.167 183.045,140.800 182.930 C 140.433 182.816,139.413 182.582,138.533 182.409 C 135.154 181.747,133.657 180.186,135.133 178.865 C 136.178 177.930,140.000 178.189,140.000 179.195 C 140.000 179.428,142.562 180.533,143.102 180.533 C 143.303 180.533,143.467 180.413,143.467 180.267 C 143.467 180.120,143.696 180.000,143.976 180.000 C 144.525 180.000,145.677 178.736,146.600 177.123 C 148.712 173.431,140.873 169.355,134.395 170.778 M253.954 171.467 C 254.612 171.467,256.904 173.743,256.723 174.217 C 256.472 174.871,254.926 174.790,253.864 174.067 C 252.630 173.226,252.323 172.665,252.735 172.005 C 252.918 171.713,253.070 171.262,253.075 171.004 C 253.082 170.557,253.096 170.557,253.355 171.000 C 253.504 171.257,253.774 171.467,253.954 171.467 M139.600 171.465 C 143.886 172.166,146.908 174.844,145.732 176.901 C 143.999 179.934,142.585 180.199,139.665 178.041 C 137.695 176.584,134.341 177.590,134.185 179.683 C 134.029 181.779,134.718 182.304,138.785 183.184 C 144.968 184.522,146.802 185.883,147.729 189.821 C 149.501 197.348,141.622 203.228,133.204 200.660 C 129.142 199.421,125.682 195.082,127.467 193.467 C 127.760 193.201,128.000 192.833,128.000 192.649 C 128.000 192.146,130.283 191.127,130.942 191.336 C 131.248 191.433,132.241 192.179,133.149 192.993 C 136.926 196.380,141.237 195.823,141.015 191.977 C 140.919 190.308,139.932 189.607,136.738 188.939 C 134.395 188.449,131.068 187.035,129.954 186.057 C 125.253 181.930,127.382 173.579,133.600 171.754 C 134.260 171.560,134.920 171.366,135.067 171.322 C 135.665 171.143,138.100 171.219,139.600 171.465 M205.980 179.433 C 200.321 181.364,196.803 186.965,197.860 192.361 C 198.601 196.146,201.801 200.110,204.900 201.081 C 205.505 201.271,206.114 201.525,206.253 201.646 C 206.618 201.964,212.468 201.921,212.667 201.600 C 212.757 201.453,213.053 201.333,213.324 201.333 C 214.577 201.333,218.168 198.556,219.158 196.821 C 219.356 196.476,219.727 195.820,219.983 195.363 C 220.740 194.015,221.118 190.699,220.770 188.453 C 219.725 181.708,212.401 177.241,205.980 179.433 M190.557 179.388 C 189.526 179.550,188.534 180.223,188.529 180.764 C 188.527 181.043,188.455 181.093,188.329 180.902 C 187.307 179.346,182.820 178.975,180.326 180.240 C 174.478 183.205,172.304 190.655,175.729 195.993 C 176.588 197.332,178.976 199.733,179.447 199.733 C 179.605 199.733,179.733 199.853,179.733 200.000 C 179.733 200.147,179.973 200.267,180.267 200.267 C 180.560 200.267,180.800 200.387,180.800 200.533 C 180.800 200.680,181.347 200.800,182.016 200.800 C 182.876 200.800,183.175 200.891,183.039 201.112 C 182.902 201.333,182.995 201.361,183.356 201.208 C 183.637 201.090,184.557 200.935,185.400 200.864 C 186.243 200.794,186.933 200.630,186.933 200.501 C 186.933 200.372,187.103 200.267,187.311 200.267 C 187.519 200.267,187.749 200.117,187.823 199.933 C 187.897 199.750,187.967 199.936,187.979 200.347 C 188.041 202.546,185.457 204.219,183.530 203.229 C 183.275 203.098,182.716 202.828,182.287 202.629 C 180.954 202.009,180.533 201.747,180.533 201.537 C 180.533 200.286,176.865 202.956,176.114 204.754 C 175.474 206.285,176.606 208.800,177.935 208.800 C 178.054 208.800,178.470 209.008,178.859 209.263 C 180.880 210.587,187.038 211.576,187.600 210.667 C 187.691 210.520,187.959 210.400,188.197 210.400 C 188.788 210.400,191.200 209.291,191.200 209.019 C 191.200 208.899,191.380 208.800,191.600 208.800 C 191.820 208.800,192.000 208.700,192.000 208.578 C 192.000 208.457,192.276 208.209,192.614 208.028 C 192.952 207.847,193.520 207.227,193.877 206.650 C 194.234 206.072,194.618 205.600,194.730 205.600 C 194.842 205.600,194.933 205.418,194.933 205.196 C 194.933 204.974,195.053 204.554,195.200 204.263 C 195.347 203.972,195.587 203.495,195.733 203.204 C 195.898 202.876,196.000 198.520,196.000 191.804 L 195.999 180.933 195.400 180.238 C 194.774 179.511,192.411 179.097,190.557 179.388 M156.374 180.244 C 147.905 184.165,147.838 196.690,156.264 200.753 C 158.234 201.704,162.137 201.747,163.421 200.832 C 164.375 200.153,164.489 200.144,165.100 200.697 C 165.880 201.403,168.559 201.845,169.935 201.496 C 172.242 200.910,172.133 201.454,172.133 190.507 L 172.133 180.843 171.487 180.155 C 170.442 179.043,166.248 179.111,165.166 180.257 C 164.755 180.692,164.355 180.962,164.277 180.857 C 163.139 179.344,159.009 179.024,156.374 180.244 M214.250 180.743 C 226.849 187.478,217.597 206.068,204.598 200.139 C 203.228 199.514,200.533 197.269,200.533 196.753 C 200.533 196.642,200.190 196.011,199.771 195.350 C 194.438 186.940,205.315 175.966,214.250 180.743 M246.907 180.295 L 246.133 181.123 246.133 190.573 C 246.133 200.011,246.134 200.024,246.733 200.647 C 247.990 201.953,252.022 202.090,253.289 200.869 C 254.154 200.036,254.476 182.923,253.663 181.013 C 252.906 179.234,248.350 178.750,246.907 180.295 M257.574 179.808 C 256.337 180.752,256.267 181.339,256.267 190.638 C 256.267 196.215,256.364 199.496,256.533 199.600 C 256.680 199.691,256.800 199.977,256.800 200.237 C 256.800 200.968,259.223 201.898,260.667 201.721 C 264.236 201.286,264.267 201.231,264.267 195.166 C 264.267 188.650,264.782 187.467,267.622 187.467 C 270.255 187.467,270.667 188.472,270.667 194.906 C 270.667 200.657,270.790 200.988,273.125 201.508 C 275.498 202.037,277.696 201.368,278.337 199.921 C 278.760 198.965,278.786 189.934,278.372 187.946 C 277.017 181.447,270.337 177.374,265.776 180.267 C 264.460 181.101,264.000 181.242,264.000 180.810 C 264.000 179.620,258.869 178.820,257.574 179.808 M226.893 180.491 C 227.282 180.908,227.779 181.598,227.998 182.024 C 228.569 183.135,232.446 189.573,232.805 190.006 C 233.321 190.628,233.750 190.179,234.673 188.055 C 238.497 179.245,239.156 178.619,242.423 180.681 C 244.260 181.841,244.341 182.651,242.914 185.598 C 242.484 186.484,242.133 187.274,242.133 187.354 C 242.133 187.433,241.244 189.441,240.157 191.816 C 239.070 194.191,237.523 197.633,236.718 199.467 C 235.913 201.300,234.955 203.460,234.589 204.267 C 234.222 205.073,233.546 206.568,233.086 207.588 C 231.690 210.687,230.781 211.069,228.051 209.709 C 225.822 208.598,225.841 207.958,228.261 202.502 C 230.236 198.051,230.251 198.500,228.000 194.763 C 226.973 193.058,226.133 191.628,226.133 191.586 C 226.133 191.544,225.533 190.542,224.800 189.359 C 224.067 188.177,223.467 187.127,223.467 187.026 C 223.467 186.925,223.302 186.653,223.101 186.421 C 221.595 184.685,221.038 182.651,221.806 181.692 C 223.360 179.752,225.690 179.202,226.893 180.491 M162.533 180.729 C 162.973 180.949,163.596 181.369,163.918 181.663 L 164.502 182.197 165.434 181.180 C 166.630 179.874,169.611 179.626,170.726 180.740 C 172.042 182.056,171.836 199.480,170.492 200.463 C 169.386 201.272,165.645 200.664,165.241 199.610 C 165.008 199.003,164.349 199.110,163.274 199.930 C 159.300 202.961,152.171 198.694,150.694 192.400 C 149.088 185.556,156.860 177.895,162.533 180.729 M187.197 181.090 C 188.736 182.037,188.900 182.045,189.287 181.195 C 190.029 179.566,194.416 179.601,195.045 181.240 C 195.469 182.343,195.208 202.367,194.755 203.539 C 192.799 208.601,186.921 211.295,181.545 209.592 C 176.368 207.952,175.226 205.192,178.720 202.765 L 179.707 202.079 181.127 202.892 C 184.202 204.651,186.753 204.489,188.141 202.447 C 189.255 200.807,188.889 198.020,187.701 199.096 C 183.874 202.559,176.324 198.451,174.911 192.135 C 173.282 184.857,181.423 177.537,187.197 181.090 M251.333 180.260 C 253.366 180.731,253.333 180.565,253.333 190.309 C 253.333 199.797,253.254 200.331,251.795 200.719 C 249.921 201.217,247.657 200.834,247.141 199.930 C 246.778 199.294,246.472 183.877,246.790 182.271 C 247.163 180.395,248.796 179.672,251.333 180.260 M262.989 180.717 C 263.252 180.955,263.467 181.371,263.467 181.641 C 263.467 182.363,264.241 182.239,265.453 181.322 C 269.297 178.414,274.957 180.822,277.222 186.330 C 277.905 187.991,278.206 198.273,277.616 199.824 C 277.195 200.933,274.231 201.258,272.226 200.415 C 271.529 200.122,271.420 199.373,271.329 194.214 C 271.219 188.045,270.773 187.060,267.944 186.741 C 264.605 186.365,263.733 187.903,263.733 194.174 C 263.733 199.702,263.569 200.253,261.778 200.732 C 259.820 201.255,257.932 200.754,257.442 199.581 C 256.872 198.218,256.897 182.436,257.470 181.327 C 258.151 180.011,261.767 179.611,262.989 180.717 M208.244 186.377 C 203.607 187.860,204.535 194.667,209.374 194.667 C 214.503 194.667,215.069 186.935,209.988 186.290 C 209.408 186.216,208.623 186.255,208.244 186.377 M183.738 186.661 C 181.978 187.097,180.729 189.502,181.325 191.307 C 182.576 195.098,188.533 194.330,188.533 190.378 C 188.533 187.562,186.491 185.979,183.738 186.661 M159.205 187.134 C 158.074 187.702,157.067 189.140,157.067 190.187 C 157.067 193.658,161.090 195.512,163.458 193.133 C 166.553 190.024,163.113 185.171,159.205 187.134 M210.703 187.267 C 212.713 188.328,213.374 189.745,212.725 191.600 C 211.441 195.270,206.000 194.368,206.000 190.485 C 206.000 188.833,206.839 187.467,207.855 187.467 C 208.081 187.467,208.267 187.347,208.267 187.200 C 208.267 186.823,209.950 186.869,210.703 187.267 M162.556 187.906 C 165.346 189.734,163.659 194.060,160.394 193.448 C 159.365 193.255,158.199 192.222,157.967 191.298 C 157.781 190.554,158.439 188.379,158.829 188.451 C 158.981 188.479,159.273 188.269,159.478 187.984 C 159.950 187.330,161.613 187.288,162.556 187.906 M187.043 188.287 C 188.445 189.954,188.062 191.865,186.117 192.908 C 183.390 194.369,180.532 190.476,182.667 188.208 C 183.710 187.099,186.079 187.142,187.043 188.287 M255.046 203.419 C 254.255 204.156,249.250 207.461,246.400 209.128 C 219.849 224.662,187.487 226.292,159.684 213.498 C 157.978 212.713,157.067 212.607,157.067 213.195 C 157.067 213.697,161.559 218.376,163.728 220.133 C 167.106 222.870,167.395 223.187,166.838 223.547 C 166.565 223.723,165.258 224.573,163.932 225.437 C 146.734 236.649,146.594 263.500,163.733 263.586 C 171.253 263.623,174.786 258.670,174.082 249.076 C 173.624 242.829,174.344 239.099,177.108 233.400 C 179.426 228.621,179.751 228.442,184.303 229.426 C 192.430 231.183,198.735 231.591,207.480 230.928 C 228.974 229.297,248.110 219.045,255.844 205.015 C 256.906 203.087,256.429 202.131,255.046 203.419 M255.580 204.333 C 255.100 205.861,251.339 210.774,248.461 213.635 C 237.375 224.655,220.941 230.477,200.800 230.518 C 192.666 230.534,191.178 230.398,184.725 229.040 C 179.540 227.950,179.266 228.085,176.825 232.933 C 173.891 238.758,173.096 242.743,173.607 249.054 C 174.374 258.524,171.166 263.075,163.733 263.061 C 146.875 263.029,147.341 236.911,164.400 225.727 C 166.160 224.573,167.649 223.593,167.709 223.550 C 168.039 223.311,167.079 222.243,165.113 220.664 C 162.285 218.391,157.789 213.941,157.991 213.615 C 158.075 213.478,159.732 214.029,161.672 214.839 C 175.024 220.414,184.429 222.383,197.772 222.395 C 218.611 222.413,236.033 217.063,253.200 205.374 C 255.963 203.493,255.826 203.553,255.580 204.333 M127.200 206.340 C 123.933 208.108,123.503 212.927,126.321 216.176 C 128.913 219.163,137.746 220.733,142.742 219.094 C 145.293 218.257,145.175 218.027,141.167 216.019 C 137.623 214.243,136.526 213.226,134.817 210.133 C 132.685 206.275,129.890 204.883,127.200 206.340 M131.284 206.699 C 132.409 207.277,133.360 208.402,134.607 210.630 C 136.139 213.366,137.496 214.603,140.937 216.400 C 143.936 217.966,144.025 218.122,142.267 218.722 C 136.800 220.587,127.960 218.357,125.729 214.550 C 123.157 210.161,127.120 204.560,131.284 206.699 M255.787 214.987 C 255.273 215.500,255.417 216.003,256.067 215.969 C 256.518 215.946,256.551 215.908,256.200 215.816 C 255.717 215.690,255.604 215.418,255.909 215.113 C 256.005 215.017,256.275 215.087,256.509 215.269 C 256.884 215.562,256.891 215.546,256.567 215.133 C 256.132 214.579,256.185 214.588,255.787 214.987 M251.174 215.491 C 251.111 215.697,251.630 216.421,252.329 217.099 C 253.028 217.777,253.600 218.250,253.600 218.151 C 253.600 218.052,253.168 217.558,252.640 217.052 C 252.112 216.547,251.592 215.904,251.485 215.624 C 251.341 215.249,251.259 215.214,251.174 215.491 M250.087 216.313 C 250.820 217.090,251.237 217.354,250.690 216.695 C 250.520 216.490,250.415 216.175,250.457 215.994 C 250.499 215.813,250.273 215.641,249.954 215.612 C 249.397 215.561,249.402 215.588,250.087 216.313 M252.800 216.400 C 253.298 216.913,253.765 217.333,253.838 217.333 C 253.911 217.333,253.564 216.913,253.067 216.400 C 252.569 215.887,252.102 215.467,252.029 215.467 C 251.955 215.467,252.302 215.887,252.800 216.400 M255.322 216.819 C 255.225 216.976,254.888 217.208,254.573 217.335 C 254.182 217.493,254.135 217.572,254.425 217.583 C 254.659 217.592,255.068 217.360,255.333 217.067 C 255.599 216.773,255.744 216.533,255.657 216.533 C 255.570 216.533,255.419 216.662,255.322 216.819 M250.933 217.417 C 250.933 217.463,251.323 217.853,251.800 218.283 L 252.667 219.067 251.883 218.200 C 251.153 217.392,250.933 217.211,250.933 217.417 M244.344 221.067 C 244.263 221.378,243.967 221.610,243.636 221.624 C 243.227 221.641,243.307 221.718,243.921 221.895 C 244.391 222.031,244.965 222.410,245.195 222.738 L 245.614 223.333 245.504 222.667 C 245.443 222.300,245.267 222.028,245.113 222.061 C 244.789 222.132,244.400 221.111,244.654 220.857 C 244.748 220.763,245.089 220.852,245.412 221.053 C 245.949 221.387,245.968 221.381,245.634 220.976 C 245.137 220.375,244.513 220.418,244.344 221.067 M247.467 220.782 C 247.467 220.938,247.583 221.067,247.725 221.067 C 247.867 221.067,247.916 221.277,247.833 221.533 C 247.712 221.910,247.736 221.926,247.955 221.617 C 248.179 221.300,248.298 221.294,248.646 221.583 C 248.878 221.775,249.067 221.865,249.067 221.784 C 249.067 221.703,248.707 221.380,248.267 221.067 C 247.827 220.753,247.467 220.625,247.467 220.782 M242.815 222.908 C 242.733 223.041,242.907 223.087,243.201 223.010 C 243.495 222.933,243.946 223.035,244.201 223.235 C 244.623 223.566,244.632 223.556,244.301 223.133 C 243.911 222.636,243.063 222.508,242.815 222.908 M239.200 224.004 C 238.916 224.190,239.050 224.218,239.666 224.100 C 240.223 223.993,240.699 224.064,240.999 224.300 C 241.423 224.632,241.432 224.623,241.101 224.200 C 240.698 223.686,239.822 223.596,239.200 224.004 M168.846 224.983 C 165.378 226.692,161.638 235.990,162.523 240.705 C 162.789 242.125,163.114 241.611,164.529 237.530 C 166.660 231.385,167.745 229.631,170.691 227.567 C 173.244 225.778,173.244 225.778,172.367 225.088 C 171.513 224.417,170.081 224.374,168.846 224.983 M241.500 224.746 C 241.322 225.034,241.742 225.676,242.179 225.783 C 242.374 225.831,242.953 225.926,243.467 225.994 C 244.384 226.116,244.386 226.115,243.571 225.901 C 242.567 225.637,241.537 224.952,241.779 224.709 C 241.876 224.613,241.883 224.533,241.794 224.533 C 241.704 224.533,241.572 224.629,241.500 224.746 M239.335 225.064 C 239.241 225.216,239.352 225.258,239.599 225.163 C 239.851 225.067,240.190 225.204,240.428 225.500 C 240.806 225.971,240.812 225.965,240.539 225.400 C 240.237 224.778,239.619 224.605,239.335 225.064 M171.843 225.371 C 172.502 225.671,172.488 225.690,170.698 226.947 C 168.835 228.256,166.667 230.480,166.667 231.082 C 166.667 231.269,166.570 231.462,166.451 231.511 C 166.228 231.603,165.173 234.181,163.739 238.133 L 162.917 240.400 163.049 238.133 C 163.485 230.666,168.258 223.738,171.843 225.371 M139.177 225.855 C 135.523 226.962,135.238 231.851,138.724 233.629 C 140.872 234.725,142.628 233.933,144.669 230.947 C 145.326 229.986,146.217 228.802,146.649 228.315 C 147.618 227.224,147.470 226.757,146.039 226.386 C 145.431 226.228,144.513 225.988,144.000 225.851 C 142.894 225.557,140.152 225.559,139.177 225.855 M237.063 225.933 C 237.061 226.117,236.991 226.520,236.908 226.830 C 236.803 227.222,236.905 227.450,237.245 227.579 C 237.625 227.724,237.663 227.694,237.414 227.444 C 237.232 227.260,237.161 226.796,237.248 226.361 C 237.331 225.942,237.325 225.600,237.233 225.600 C 237.142 225.600,237.065 225.750,237.063 225.933 M144.954 226.551 C 146.873 227.109,146.886 227.181,145.412 229.225 C 142.018 233.928,140.272 234.735,138.128 232.590 C 134.164 228.627,138.598 224.703,144.954 226.551 M239.600 226.933 C 239.828 227.373,240.074 227.733,240.147 227.733 C 240.220 227.733,240.094 227.373,239.867 226.933 C 239.639 226.493,239.393 226.133,239.320 226.133 C 239.246 226.133,239.372 226.493,239.600 226.933 M241.032 226.585 C 241.199 226.907,241.464 227.249,241.619 227.345 C 242.150 227.673,242.030 227.335,241.379 226.667 C 240.790 226.063,240.757 226.055,241.032 226.585 M231.036 228.384 C 230.955 228.595,231.002 228.971,231.141 229.219 C 231.340 229.574,231.387 229.492,231.363 228.836 C 231.330 227.912,231.256 227.810,231.036 228.384 M238.766 228.391 C 238.684 228.606,238.678 228.936,238.754 229.125 C 238.829 229.313,238.901 229.190,238.912 228.851 C 238.926 228.457,239.044 228.304,239.241 228.425 C 239.432 228.543,239.477 228.499,239.359 228.308 C 239.105 227.898,238.947 227.920,238.766 228.391 M236.339 229.309 C 236.373 229.882,236.460 230.291,236.533 230.219 C 236.743 230.012,236.689 228.267,236.473 228.267 C 236.366 228.267,236.306 228.736,236.339 229.309 M228.636 229.184 C 228.555 229.395,228.620 229.785,228.781 230.050 C 229.022 230.447,229.042 230.395,228.898 229.759 C 228.739 229.063,228.780 228.999,229.294 229.134 C 229.610 229.216,229.800 229.175,229.718 229.042 C 229.486 228.667,228.800 228.757,228.636 229.184 M225.458 230.409 C 225.188 230.708,224.820 230.896,224.640 230.827 C 224.397 230.733,224.373 230.909,224.549 231.520 C 224.877 232.664,225.067 232.766,225.067 231.797 C 225.067 231.223,225.281 230.804,225.769 230.419 C 226.156 230.115,226.354 229.867,226.211 229.867 C 226.067 229.867,225.728 230.111,225.458 230.409 M223.572 231.044 C 223.492 231.252,223.470 231.762,223.523 232.177 C 223.601 232.794,223.643 232.725,223.750 231.800 C 223.885 230.634,223.825 230.383,223.572 231.044 M226.187 230.987 C 226.011 231.163,225.874 231.493,225.884 231.720 C 225.893 231.960,226.006 231.869,226.153 231.503 C 226.347 231.018,226.557 230.901,227.061 230.998 C 227.422 231.067,227.654 231.020,227.576 230.895 C 227.371 230.562,226.557 230.616,226.187 230.987 M228.740 231.267 C 228.843 231.662,228.926 231.697,229.100 231.423 C 229.419 230.919,229.387 230.756,228.970 230.756 C 228.743 230.756,228.657 230.948,228.740 231.267 M221.033 231.667 C 220.699 232.092,220.709 232.100,221.145 231.758 C 221.677 231.340,221.740 231.386,222.763 232.929 C 223.150 233.513,223.467 233.891,223.467 233.770 C 223.467 233.648,223.218 233.200,222.915 232.774 C 222.612 232.349,222.455 232.000,222.566 232.000 C 222.801 232.000,221.817 231.221,221.566 231.208 C 221.474 231.204,221.234 231.410,221.033 231.667 M164.680 232.321 C 164.452 232.776,164.267 233.483,164.267 233.892 C 164.267 234.301,164.147 234.709,164.000 234.800 C 163.636 235.025,163.661 236.000,164.031 236.000 C 164.201 236.000,164.267 235.763,164.185 235.450 C 164.097 235.114,164.189 234.844,164.421 234.755 C 164.629 234.675,164.800 234.441,164.800 234.235 C 164.800 233.873,164.910 233.597,165.546 232.357 C 165.778 231.905,165.761 231.750,165.467 231.637 C 165.233 231.547,164.938 231.804,164.680 232.321 M229.833 232.333 C 230.034 232.590,230.454 232.786,230.766 232.769 C 231.305 232.740,231.307 232.732,230.800 232.607 C 230.507 232.535,230.087 232.339,229.867 232.171 C 229.519 231.906,229.514 231.927,229.833 232.333 M216.326 232.682 C 216.000 232.910,215.733 233.233,215.733 233.399 C 215.733 233.566,215.893 233.483,216.088 233.216 C 216.284 232.949,216.914 232.640,217.488 232.529 C 218.433 232.347,218.456 232.325,217.726 232.297 C 217.282 232.280,216.652 232.453,216.326 232.682 M221.067 232.299 C 221.067 232.375,221.547 233.080,222.133 233.867 C 222.720 234.653,223.200 235.202,223.200 235.087 C 223.200 234.971,222.819 234.379,222.353 233.772 C 221.273 232.365,221.067 232.128,221.067 232.299 M200.682 232.775 C 200.600 232.908,200.773 232.954,201.066 232.877 C 201.449 232.777,201.600 232.869,201.600 233.200 C 201.600 233.535,201.449 233.623,201.051 233.519 C 200.593 233.399,200.556 233.440,200.829 233.768 C 201.250 234.276,202.029 233.609,201.778 232.954 C 201.603 232.497,200.923 232.386,200.682 232.775 M228.343 233.253 C 227.709 233.911,226.722 234.039,225.782 233.585 C 225.220 233.313,225.218 233.318,225.718 233.719 C 226.470 234.321,227.595 234.227,228.452 233.489 C 228.863 233.135,229.140 232.799,229.067 232.743 C 228.993 232.686,228.668 232.916,228.343 233.253 M187.643 233.067 C 187.813 233.287,187.994 233.827,188.045 234.267 L 188.137 235.067 188.495 234.434 C 188.700 234.073,188.728 233.880,188.560 233.984 C 188.399 234.083,188.267 233.992,188.267 233.782 C 188.267 233.571,188.057 233.234,187.800 233.033 C 187.394 232.714,187.374 232.719,187.643 233.067 M213.921 233.458 C 213.637 233.819,213.328 234.039,213.235 233.947 C 213.143 233.854,213.070 234.008,213.074 234.289 C 213.080 234.715,213.202 234.660,213.807 233.962 C 214.207 233.500,214.713 233.060,214.933 232.983 C 215.258 232.868,215.249 232.838,214.886 232.821 C 214.640 232.809,214.206 233.096,213.921 233.458 M216.935 233.330 C 216.843 233.480,216.946 233.527,217.173 233.440 C 217.751 233.218,218.297 233.599,217.828 233.896 C 217.547 234.075,217.570 234.126,217.933 234.129 C 218.476 234.134,218.534 233.841,218.080 233.387 C 217.692 232.998,217.157 232.972,216.935 233.330 M185.979 233.566 C 186.073 233.719,186.327 233.776,186.542 233.693 C 186.757 233.611,186.933 233.669,186.933 233.823 C 186.933 233.977,186.423 234.149,185.800 234.205 L 184.667 234.307 185.953 234.353 C 187.351 234.404,187.764 233.567,186.434 233.378 C 186.051 233.323,185.874 233.396,185.979 233.566 M191.012 233.731 C 191.189 233.923,191.373 233.973,191.422 233.840 C 191.617 233.313,192.267 233.628,192.267 234.251 C 192.267 235.146,192.582 235.258,193.112 234.550 C 193.462 234.083,193.479 233.956,193.191 233.956 C 192.989 233.956,192.880 234.047,192.949 234.159 C 193.019 234.271,192.962 234.433,192.823 234.519 C 192.685 234.605,192.533 234.403,192.486 234.071 C 192.419 233.598,192.214 233.457,191.545 233.424 C 190.852 233.389,190.751 233.447,191.012 233.731 M210.238 233.711 C 210.159 233.918,210.145 234.428,210.207 234.844 C 210.304 235.493,210.326 235.461,210.360 234.620 C 210.388 233.932,210.539 233.603,210.867 233.517 C 211.304 233.403,211.303 233.393,210.858 233.364 C 210.597 233.347,210.318 233.503,210.238 233.711 M195.907 234.549 C 196.283 234.925,196.654 235.168,196.733 235.089 C 196.882 234.941,195.740 233.891,195.412 233.876 C 195.309 233.871,195.532 234.174,195.907 234.549 M199.188 234.423 C 199.024 234.729,198.949 235.038,199.021 235.110 C 199.093 235.181,199.233 234.982,199.333 234.667 C 199.447 234.308,199.660 234.151,199.905 234.244 C 200.123 234.328,200.223 234.278,200.131 234.130 C 199.872 233.710,199.509 233.822,199.188 234.423 M202.535 234.130 C 202.442 234.281,202.549 234.326,202.786 234.235 C 203.014 234.148,203.200 234.216,203.200 234.387 C 203.200 234.558,203.333 234.616,203.495 234.516 C 203.701 234.389,203.681 234.264,203.428 234.104 C 202.953 233.803,202.733 233.810,202.535 234.130 M204.533 234.062 C 205.404 234.222,205.809 234.572,205.948 235.286 L 206.061 235.867 206.097 235.286 C 206.146 234.497,205.447 233.859,204.581 233.903 L 203.867 233.939 204.533 234.062 M180.101 234.521 C 180.020 234.734,180.030 235.034,180.125 235.187 C 180.337 235.529,181.333 235.560,181.333 235.225 C 181.333 235.092,181.074 235.051,180.758 235.134 C 180.272 235.261,180.206 235.194,180.333 234.709 C 180.502 234.063,180.331 233.923,180.101 234.521 M200.649 236.199 C 200.665 238.083,200.714 238.267,201.200 238.267 C 201.684 238.267,201.735 238.082,201.754 236.267 L 201.774 234.267 201.675 236.200 C 201.533 238.984,200.861 238.936,200.727 236.132 L 200.631 234.132 200.649 236.199 M218.800 234.400 C 218.491 234.533,218.424 234.637,218.641 234.648 C 218.927 234.662,218.895 234.809,218.508 235.267 L 218.000 235.867 218.602 235.357 C 219.339 234.733,219.713 235.011,219.214 235.812 C 218.879 236.349,218.886 236.368,219.290 236.034 C 219.781 235.628,219.894 234.667,219.451 234.667 C 219.296 234.667,219.243 234.547,219.333 234.400 C 219.523 234.093,219.514 234.093,218.800 234.400 M182.223 235.085 C 182.135 235.314,182.192 235.632,182.350 235.790 C 182.555 235.995,182.591 235.901,182.476 235.463 C 182.338 234.936,182.397 234.870,182.892 235.000 C 183.208 235.083,183.400 235.041,183.318 234.908 C 183.078 234.520,182.397 234.630,182.223 235.085 M184.031 235.367 C 184.014 235.679,184.210 236.099,184.467 236.301 C 184.873 236.619,184.894 236.615,184.629 236.267 C 184.461 236.047,184.265 235.627,184.193 235.333 C 184.068 234.827,184.060 234.828,184.031 235.367 M186.583 235.301 C 186.500 235.516,186.155 235.745,185.816 235.810 C 185.244 235.919,185.241 235.930,185.767 235.964 C 186.324 235.999,187.143 235.321,186.871 235.049 C 186.795 234.973,186.665 235.086,186.583 235.301 M199.778 235.720 C 199.622 236.167,199.551 236.533,199.620 236.533 C 199.800 236.533,200.304 235.148,200.172 235.016 C 200.111 234.956,199.934 235.272,199.778 235.720 M203.644 235.111 C 203.547 235.209,203.467 235.889,203.467 236.622 C 203.467 238.345,203.771 238.059,203.825 236.285 C 203.848 235.541,203.857 234.933,203.844 234.933 C 203.832 234.933,203.742 235.013,203.644 235.111 M204.793 236.212 L 204.922 237.467 205.013 236.432 C 205.062 235.862,205.004 235.298,204.884 235.177 C 204.763 235.057,204.723 235.523,204.793 236.212 M215.733 235.492 C 215.733 235.642,215.583 235.675,215.400 235.565 C 215.179 235.432,215.192 235.519,215.438 235.822 C 215.642 236.074,215.871 236.218,215.947 236.142 C 216.022 236.066,216.248 236.141,216.449 236.307 C 217.073 236.825,216.992 236.431,216.347 235.810 C 216.009 235.485,215.733 235.342,215.733 235.492 M187.702 236.208 C 187.614 236.738,187.653 236.987,187.801 236.839 C 187.935 236.705,188.001 236.311,187.946 235.964 C 187.862 235.430,187.824 235.468,187.702 236.208 M190.841 235.855 C 190.664 236.317,189.718 236.415,189.509 235.993 C 189.434 235.843,189.404 235.873,189.441 236.060 C 189.542 236.567,190.529 236.620,190.928 236.140 C 191.119 235.909,191.214 235.658,191.138 235.582 C 191.061 235.506,190.928 235.629,190.841 235.855 M213.425 235.878 C 213.339 236.104,213.342 236.364,213.434 236.456 C 213.525 236.547,213.600 236.422,213.600 236.178 C 213.600 235.649,213.887 235.609,214.400 236.067 C 214.718 236.350,214.722 236.330,214.421 235.933 C 213.985 235.357,213.633 235.338,213.425 235.878 M223.687 236.290 C 223.275 236.723,223.274 236.772,223.679 236.927 C 223.920 237.019,224.032 237.010,223.928 236.905 C 223.823 236.801,223.874 236.552,224.040 236.351 C 224.495 235.804,224.200 235.753,223.687 236.290 M188.267 236.223 C 188.267 236.335,188.411 236.571,188.587 236.747 C 188.836 236.996,188.806 237.067,188.453 237.067 C 188.204 237.067,188.000 237.183,188.000 237.325 C 188.000 237.467,188.161 237.522,188.357 237.446 C 188.554 237.371,188.868 237.495,189.057 237.721 C 189.245 237.948,189.714 238.119,190.099 238.102 C 190.636 238.079,190.675 238.044,190.267 237.953 C 189.226 237.723,188.946 237.573,189.211 237.386 C 189.366 237.276,189.226 236.958,188.870 236.610 C 188.538 236.285,188.267 236.111,188.267 236.223 M209.579 236.866 C 209.500 237.440,209.540 237.766,209.674 237.632 C 209.803 237.504,209.865 237.054,209.813 236.632 C 209.725 235.928,209.706 235.946,209.579 236.866 M211.529 236.800 C 211.529 237.313,211.583 237.523,211.650 237.267 C 211.718 237.010,211.718 236.590,211.650 236.333 C 211.583 236.077,211.529 236.287,211.529 236.800 M214.841 236.867 C 214.909 236.977,215.198 237.067,215.482 237.067 C 215.767 237.067,216.000 236.977,216.000 236.867 C 216.000 236.757,215.711 236.667,215.359 236.667 C 215.006 236.667,214.773 236.757,214.841 236.867 M196.494 239.534 C 196.629 239.669,197.022 239.734,197.369 239.679 C 197.903 239.595,197.865 239.558,197.125 239.435 C 196.595 239.347,196.346 239.386,196.494 239.534 " stroke="none" fill="#ffffff" fill-rule="evenodd"></path></g></svg>